<?xml version="1.0" encoding="utf-8"?>
<!-- Generator: Adobe Illustrator 19.1.0, SVG Export Plug-In . SVG Version: 6.00 Build 0)  -->
<svg version="1.1" id="Слой_1" xmlns="http://www.w3.org/2000/svg" xmlns:xlink="http://www.w3.org/1999/xlink" x="0px" y="0px"
	 viewBox="0 0 102 102" style="enable-background:new 0 0 102 102;" xml:space="preserve">
<style type="text/css">
	.st0{fill:#FFFFFF;}
</style>
<g>
	<path class="st0" d="M51,102C22.9,102,0,79.1,0,51C0,22.9,22.9,0,51,0c28.1,0,51,22.9,51,51C102,79.1,79.1,102,51,102z M51,2
		C24,2,2,24,2,51s22,49,49,49s49-22,49-49S78,2,51,2z"/>
</g>
<g>
	<path class="st0" d="M41,67.1v-32l21.7,14.8L41,67.1z M43,38.9v24l16.3-12.9L43,38.9z"/>
</g>
</svg>
